<?xml version="1.0" standalone="no"?>
<!DOCTYPE svg PUBLIC "-//W3C//DTD SVG 20010904//EN"
 "http://www.w3.org/TR/2001/REC-SVG-20010904/DTD/svg10.dtd">
<svg version="1.0" xmlns="http://www.w3.org/2000/svg"
 width="260.000000pt" height="260.000000pt" viewBox="0 0 260.000000 260.000000"
 preserveAspectRatio="xMidYMid meet">
<metadata>
Created by potrace 1.14, written by Peter Selinger 2001-2017
</metadata>
<g transform="translate(0.000000,260.000000) scale(0.100000,-0.100000)"
fill="#000000" stroke="none">
<path d="M1125 2589 c-110 -14 -276 -65 -388 -118 -294 -141 -541 -409 -654
-710 -145 -385 -95 -831 130 -1173 190 -288 491 -491 837 -565 117 -24 381
-24 498 0 276 59 496 179 687 378 182 191 290 396 342 657 25 123 24 377 -1
491 -56 260 -160 460 -333 641 -186 195 -398 318 -652 376 -119 27 -342 38
-466 23z m410 -318 c375 -92 653 -376 741 -756 13 -57 19 -119 19 -215 0 -96
-6 -158 -19 -215 -88 -381 -366 -663 -746 -758 -115 -28 -330 -30 -445 -3
-638 148 -968 842 -677 1421 154 307 422 496 777 549 65 10 272 -4 350 -23z"/>
<path d="M1281 2086 c-8 -9 -11 -53 -9 -127 l3 -114 25 0 25 0 3 117 c2 107 1
118 -17 127 -14 8 -22 7 -30 -3z"/>
<path d="M776 1874 c-9 -8 -16 -19 -16 -23 0 -4 38 -44 84 -89 56 -55 89 -80
99 -76 36 13 26 37 -45 111 -88 90 -101 98 -122 77z"/>
<path d="M1713 1807 c-83 -84 -94 -107 -56 -122 22 -8 186 156 178 178 -15 38
-38 27 -122 -56z"/>
<path d="M1185 1787 c-118 -40 -207 -117 -258 -225 -29 -61 -32 -76 -32 -162
0 -120 17 -165 101 -276 105 -138 107 -144 114 -334 5 -155 6 -165 25 -168 11
-2 27 -17 35 -35 48 -101 202 -101 250 0 8 18 24 33 35 35 19 3 20 13 26 168
3 97 10 177 18 195 7 17 43 71 81 120 100 131 115 168 115 290 0 92 -3 105
-32 167 -41 88 -113 160 -200 201 -56 26 -82 32 -153 34 -52 2 -101 -2 -125
-10z m250 -81 c104 -47 171 -134 195 -250 22 -106 -7 -195 -101 -314 -67 -85
-109 -168 -109 -217 0 -14 -4 -25 -10 -25 -6 0 -10 48 -10 123 l0 123 50 49
51 50 -3 100 c-3 117 -13 126 -77 76 l-38 -30 -39 29 c-21 16 -44 30 -50 30
-5 0 -23 -13 -39 -30 l-28 -29 -44 30 c-69 48 -77 41 -81 -73 l-3 -97 46 -57
46 -56 -2 -119 c0 -65 -4 -119 -8 -119 -4 0 -12 26 -19 59 -9 43 -26 77 -65
130 -104 144 -117 164 -129 204 -7 23 -12 74 -12 112 0 240 258 402 479 301z
m-25 -372 l30 17 0 -38 c0 -34 -7 -46 -54 -92 l-54 -54 5 -133 6 -134 -47 0
-46 0 0 131 0 131 -45 57 c-37 47 -45 65 -45 100 l0 42 29 -20 c38 -27 42 -27
76 9 l28 29 44 -31 c43 -32 44 -32 73 -14z m10 -519 l0 -25 -125 0 -125 0 0
25 0 25 125 0 125 0 0 -25z m0 -110 l0 -25 -125 0 -125 0 0 25 0 25 125 0 125
0 0 -25z m-73 -110 c-15 -14 -39 -25 -52 -25 -13 0 -37 11 -52 25 l-28 24 80
0 80 0 -28 -24z"/>
<path d="M560 1365 c-10 -12 -10 -18 0 -30 11 -13 35 -15 129 -13 l116 3 0 25
0 25 -116 3 c-94 2 -118 0 -129 -13z"/>
<path d="M1794 1365 c-3 -8 -3 -22 0 -30 5 -13 25 -15 123 -13 l118 3 0 25 0
25 -118 3 c-98 2 -118 0 -123 -13z"/>
<path d="M843 937 c-83 -84 -94 -107 -56 -122 22 -8 186 156 178 178 -15 38
-38 27 -122 -56z"/>
<path d="M1646 1004 c-21 -21 -13 -34 77 -122 74 -71 98 -81 111 -45 4 10 -19
41 -66 90 -88 90 -101 98 -122 77z"/>
</g>
</svg>
